<svg width="322" height="61" viewBox="0 0 322 61" fill="none" xmlns="http://www.w3.org/2000/svg">
<path fill-rule="evenodd" clip-rule="evenodd" d="M86.064 25.9852C86.1589 25.4623 86.4436 24.9393 86.8706 24.559C87.345 24.1787 87.8194 23.9885 88.3887 23.9885H112.11L113.344 17H89.4799C87.0603 17 84.8305 17.9033 82.8379 19.6148C80.7504 21.3738 79.5168 23.4656 79.0898 25.9852L77.1447 36.9672C76.7177 39.4393 77.2395 41.5312 78.6628 43.2902C80.0862 45.0492 81.9839 45.9049 84.4509 45.9525H108.22L109.454 38.9639H85.7319C84.6407 38.9639 83.8816 38.0607 84.0714 36.9672L84.7356 33.0213H98.3518L99.5854 26.0328H85.9691L86.064 25.9852ZM121.979 33.0213H138.726C139.817 33.0213 140.576 33.9246 140.387 35.018L138.489 45.9049H145.463L147.361 35.018C147.788 32.5459 147.266 30.4541 145.843 28.6951L145.463 28.2672C146.365 26.9836 146.981 25.6049 147.219 24.0361L148.452 17H141.478L140.244 24.0361C140.149 24.559 139.865 25.082 139.39 25.4623C138.916 25.8426 138.442 26.0328 137.872 26.0328H123.165L124.778 17H117.804L112.727 45.9049H119.701L121.979 33.0213ZM183.797 38.9639L182.564 45.9525H158.747C156.28 45.9049 154.382 45.0492 152.959 43.2902C151.536 41.5312 151.014 39.4393 151.441 36.9672L154.952 17H161.926L158.415 36.9672C158.225 38.0607 158.985 38.9639 160.076 38.9639H183.797ZM187.071 45.9525H194.045L199.122 17.0475H192.147L187.071 45.9525ZM205.764 19.6623C207.756 17.9984 209.891 17.0951 212.263 17.0475H227.303C229.77 17.0475 231.715 17.9508 233.139 19.7098C234.562 21.4689 235.084 23.5131 234.657 26.0328C234.23 28.5525 232.949 30.6443 230.909 32.4033C228.869 34.1623 226.591 35.018 224.124 35.018H207.377L205.479 46H198.505L202.016 26.0328C202.443 23.5131 203.676 21.4213 205.764 19.6623ZM235.653 45.9525H242.627L243.861 38.9639H236.887L235.653 45.9525ZM254.346 19.7098C256.386 17.9508 258.663 17.0475 261.13 17.0475H284.852L283.618 24.0361H259.897C259.327 24.0361 258.853 24.2262 258.378 24.6066C257.951 24.9869 257.667 25.5098 257.572 26.0328C257.382 27.1262 258.141 28.0295 259.232 28.0295H273.987C276.454 28.0295 278.4 28.9328 279.823 30.6918C281.246 32.4508 281.768 34.4951 281.341 37.0148C280.914 39.5344 279.681 41.6262 277.593 43.3852C275.553 45.1443 273.276 46 270.809 46H247.087L248.32 39.0115H272.042C272.611 39.0115 273.133 38.8213 273.56 38.441C273.987 38.0607 274.272 37.5377 274.367 37.0148C274.557 35.9213 273.798 35.018 272.706 35.018H257.857C255.484 34.9705 253.587 34.0672 252.163 32.3557C250.74 30.5967 250.266 28.5049 250.645 26.0328C251.025 23.5607 252.306 21.4689 254.346 19.7098ZM294.72 25.9852C294.815 25.4623 295.1 24.9393 295.527 24.559C296.001 24.1787 296.475 23.9885 297.045 23.9885H320.766L322 17H298.136C295.716 17 293.487 17.9033 291.494 19.6148C289.406 21.3738 288.173 23.4656 287.746 25.9852L285.801 36.9672C285.374 39.4393 285.896 41.5312 287.319 43.2902C288.742 45.0492 290.64 45.9049 293.107 45.9525H316.876L318.11 38.9639H294.388C293.297 38.9639 292.538 38.0607 292.727 36.9672L293.392 33.0213H307.008L308.241 26.0328H294.673L294.72 25.9852ZM209 28L209.33 26C209.425 25.4762 209.708 24.9524 210.133 24.5714C210.604 24.1905 211.076 24 211.643 24H218.981H226.319C227.405 24 228.16 24.9048 227.971 26C227.877 26.5238 227.594 27.0476 227.169 27.4286C226.744 27.8095 226.225 28 225.659 28H209Z" fill="#FFCC16"/>
<path d="M58.9159 43.301L58.0386 44.3541C51.8635 51.8278 43.4614 54.9192 32.7985 53.5943C32.7311 53.5943 32.6973 53.5603 32.6298 53.5603L30.3353 61H18.93L24.7339 50.7407C24.059 50.367 23.3841 49.9594 22.743 49.5517L16.0956 61H0L16.0618 43.335C11.6415 37.5939 9.98803 30.392 11.1353 21.7633C12.2826 16.8375 14.1385 12.8289 16.703 9.73749C23.3167 1.72029 32.2249 -1.33711 43.4614 0.5313C43.9001 0.633214 44.2713 0.735126 44.6425 0.803068C42.5166 2.2978 41.1331 4.74373 41.1331 7.52936C41.1331 7.73319 41.1332 7.97099 41.1669 8.17482C40.0534 7.90305 38.6361 7.76716 36.679 7.73319C30.7739 7.66525 26.5223 10.4509 23.8566 13.6781L22.4731 15.3427C18.4576 20.2006 17.5128 26.2135 19.6386 33.3135C20.1785 34.7742 20.8197 36.0652 21.562 37.2541L44.5075 11.9796L26.691 42.6895L28.6481 43.7426L43.6976 17.1772L34.9244 45.8149C38.3325 46.2905 41.8418 45.8149 45.4523 44.3541C48.253 42.7575 50.5138 40.957 52.1672 38.9187C54.1243 36.5747 55.5753 33.2455 56.5876 28.9312L57.33 28.048C59.1858 26.5193 60.8393 26.3834 62.324 27.6063L62.7626 27.98C65.2597 30.1542 63.9774 35.2159 58.9159 43.301ZM49.2316 12.5571C51.9985 12.5571 54.2256 10.315 54.2256 7.52936C54.2256 4.74373 51.9985 2.50163 49.2316 2.50163C46.4646 2.50163 44.2375 4.74373 44.2375 7.52936C44.2375 10.315 46.4983 12.5571 49.2316 12.5571Z" fill="#FFCC16"/>
</svg>
